<svg width="45" height="51" viewBox="0 0 45 51" fill="none" xmlns="http://www.w3.org/2000/svg">
<path d="M0.0187609 0.120019C0.0300175 0.187529 0.953056 10.5128 2.07121 23.0659C3.18936 35.619 4.10489 45.8917 4.10865 45.8955C4.1124 45.8992 8.24356 47.0507 13.294 48.4496L22.4756 51L31.6797 48.4496C36.7414 47.0469 40.8876 45.8955 40.8876 45.8917C40.8914 45.8917 41.8069 35.6265 42.925 23.0846C44.0432 10.5428 44.9662 0.217533 44.9775 0.138772L45 0H0L0.0187609 0.120019ZM36.5876 9.45889C36.5876 9.5414 36.3212 12.5381 34.7528 30.0944C34.3625 34.4638 34.0286 38.0531 34.0098 38.0681C33.9686 38.1056 22.5769 41.2561 22.4869 41.2561C22.4156 41.2561 10.9676 38.0906 10.9414 38.0606C10.9339 38.0531 10.7575 36.1328 10.5512 33.7925C10.341 31.4521 10.1647 29.4643 10.1497 29.3743L10.1309 29.2168H12.9638C14.5247 29.2168 15.8005 29.2205 15.8042 29.2243C15.8042 29.2318 15.8943 30.2369 16.0068 31.4596C16.1157 32.6861 16.2132 33.6912 16.2207 33.6987C16.2282 33.7062 17.6353 34.0925 19.3538 34.5538L22.4719 35.3977L25.5974 34.5538C27.3197 34.0888 28.7343 33.7025 28.7418 33.6987C28.7568 33.68 29.3796 26.7339 29.3834 26.5427V26.4039H9.87201V26.3101C9.87201 26.2576 9.7632 24.9937 9.62812 23.5047C9.49304 22.0157 9.38422 20.7931 9.38422 20.7856C9.38422 20.7818 14.0032 20.7781 19.6465 20.7781H29.9087V20.6843C29.9087 20.6355 30.0175 19.3603 30.1526 17.8601C30.2877 16.3562 30.3965 15.096 30.3965 15.0622C30.3965 15.006 29.5672 15.0022 19.639 14.9947L8.87768 14.9835L8.6488 12.4331C8.52122 11.0304 8.4049 9.77019 8.38989 9.62767L8.36738 9.37638H36.5876V9.45889Z" fill="#1F2022"/>
</svg>
