<svg width="46" height="46" viewBox="0 0 46 46" fill="none" xmlns="http://www.w3.org/2000/svg">
<rect width="46" height="46" fill="#1F2022"/>
<path d="M13.4191 38.2C11.2324 38.2 9.3124 37.7467 7.65906 36.84C6.00573 35.9067 4.7124 34.64 3.77906 33.04C2.84573 31.4133 2.37906 29.56 2.37906 27.48C2.37906 25.4 2.81906 23.56 3.69906 21.96C4.60573 20.36 5.8324 19.1067 7.37906 18.2C8.9524 17.2667 10.7124 16.8 12.6591 16.8C14.6324 16.8 16.3791 17.2533 17.8991 18.16C19.4457 19.04 20.6591 20.2933 21.5391 21.92C22.4191 23.52 22.8591 25.3733 22.8591 27.48C22.8591 27.6133 22.8457 27.76 22.8191 27.92C22.8191 28.0533 22.8191 28.2 22.8191 28.36H4.53906V26.24H21.2991L20.1791 27.08C20.1791 25.56 19.8457 24.2133 19.1791 23.04C18.5391 21.84 17.6591 20.9067 16.5391 20.24C15.4191 19.5733 14.1257 19.24 12.6591 19.24C11.2191 19.24 9.92573 19.5733 8.77906 20.24C7.6324 20.9067 6.73906 21.84 6.09906 23.04C5.45906 24.24 5.13906 25.6133 5.13906 27.16V27.6C5.13906 29.2 5.48573 30.6133 6.17906 31.84C6.89906 33.04 7.88573 33.9867 9.13906 34.68C10.4191 35.3467 11.8724 35.68 13.4991 35.68C14.7791 35.68 15.9657 35.4533 17.0591 35C18.1791 34.5467 19.1391 33.8533 19.9391 32.92L21.5391 34.76C20.6057 35.88 19.4324 36.7333 18.0191 37.32C16.6324 37.9067 15.0991 38.2 13.4191 38.2ZM24.8538 38L33.7338 26.48L33.6938 27.88L25.2538 17H28.4538L35.3738 26L34.1738 25.96L41.0938 17H44.2138L35.6938 28L35.7338 26.48L44.6938 38H41.4538L34.1338 28.4L35.2538 28.56L28.0538 38H24.8538Z" fill="white"/>
</svg>
