<svg width="58" height="58" viewBox="0 0 58 58" fill="none" xmlns="http://www.w3.org/2000/svg">
<path d="M56.9062 26.4157L31.5825 1.09395C30.1252 -0.364649 27.7597 -0.364649 26.3005 1.09395L21.042 6.3524L27.7126 13.023C29.2629 12.4992 31.0403 12.8505 32.2762 14.0864C33.5177 15.3299 33.8665 17.1226 33.33 18.6779L39.7588 25.1067C41.3141 24.5708 43.1087 24.9177 44.3509 26.1618C46.087 27.8972 46.087 30.71 44.3509 32.4467C42.6142 34.1834 39.8014 34.1834 38.0641 32.4467C36.7582 31.1396 36.4356 29.2215 37.0968 27.6128L31.1014 21.6174L31.1008 37.3946C31.5239 37.6046 31.9236 37.884 32.2762 38.2353C34.0122 39.9707 34.0122 42.7836 32.2762 44.5215C30.5395 46.2576 27.7254 46.2576 25.9912 44.5215C24.2552 42.7836 24.2552 39.9707 25.9912 38.2353C26.4201 37.807 26.9165 37.4831 27.446 37.2655V21.3412C26.9165 21.1248 26.4208 20.8028 25.9912 20.3713C24.6758 19.0578 24.3595 17.1277 25.0335 15.5125L18.4583 8.93612L1.09455 26.2986C-0.364686 27.7585 -0.364686 30.1239 1.09455 31.5825L26.4182 56.9049C27.8762 58.3635 30.241 58.3635 31.7009 56.9049L56.9062 31.7003C58.3648 30.241 58.3648 27.8743 56.9062 26.4157Z" fill="#1F2022"/>
</svg>
