<svg width="57" height="57" viewBox="0 0 57 57" fill="none" xmlns="http://www.w3.org/2000/svg">
<path d="M9.99968 49.0219L5.88306 2.84998H51.1169L46.996 49.0146L28.4724 54.15L9.99968 49.0219Z" fill="#1F2022"/>
<path d="M28.5 50.2247L43.468 46.075L46.9895 6.62537H28.5V50.2247Z" fill="#1F2022"/>
<path d="M28.5 23.7497H21.0067L20.4891 17.951H28.5V12.2881H28.4804H14.3004L14.4359 13.8073L15.8278 29.4125H28.5V23.7497Z" fill="#EBEBEB"/>
<path d="M28.4999 38.4566L28.4752 38.4632L22.1685 36.7602L21.7653 32.2439H18.7008H16.0807L16.874 41.1352L28.4737 44.3554L28.4999 44.3483V38.4566Z" fill="#EBEBEB"/>
<path d="M28.4805 23.7498V29.4126H35.4536L34.7963 36.7567L28.4805 38.4614V44.3527L40.0896 41.1352L40.1747 40.1786L41.5054 25.2705L41.6436 23.7498H40.1176H28.4805Z" fill="white"/>
<path d="M28.4805 12.2881V15.8052V17.9372V17.951H42.1407H42.1589L42.2724 16.6781L42.5305 13.8073L42.6659 12.2881H28.4805Z" fill="white"/>
</svg>
