<svg width="45" height="45" viewBox="0 0 45 45" fill="none" xmlns="http://www.w3.org/2000/svg">
<path d="M0 0H45V45H0V0Z" fill="#1F2022"/>
<path d="M11.8322 37.6052L15.2759 35.5212C15.9402 36.6991 16.5446 37.6957 17.9942 37.6957C19.3838 37.6957 20.2599 37.1522 20.2599 35.0379V20.6593H24.4887V35.0977C24.4887 39.4777 21.9213 41.4713 18.1755 41.4713C14.7926 41.4713 12.8289 39.7192 11.8321 37.6049" fill="white"/>
<path d="M26.7857 37.1522L30.229 35.1585C31.1354 36.6388 32.3135 37.7262 34.3976 37.7262C36.1498 37.7262 37.2672 36.8501 37.2672 35.6418C37.2672 34.1919 36.1194 33.6783 34.1861 32.8328L33.1292 32.3794C30.0781 31.0807 28.0542 29.4496 28.0542 26.006C28.0542 22.8342 30.4707 20.4176 34.2467 20.4176C36.9351 20.4176 38.8683 21.3541 40.2577 23.8009L36.9651 25.9152C36.2401 24.6165 35.455 24.103 34.2468 24.103C33.0083 24.103 32.2228 24.8884 32.2228 25.9152C32.2228 27.184 33.0083 27.6976 34.8205 28.483L35.8776 28.9361C39.4723 30.4767 41.4962 32.0473 41.4962 35.5814C41.4962 39.3877 38.5058 41.4717 34.4883 41.4717C30.5615 41.4717 28.024 39.599 26.7857 37.1522Z" fill="white"/>
</svg>
