<svg width="50" height="50" viewBox="0 0 50 50" fill="none" xmlns="http://www.w3.org/2000/svg">
<circle cx="25" cy="25" r="25" fill="#1F2022"/>
<path d="M28.4298 9.50493C26.7573 7.5205 25.317 5.50508 25.0228 5.08649C24.9918 5.05548 24.9453 5.05548 24.9144 5.08649C24.6201 5.50508 23.1799 7.5205 21.5073 9.50493C7.15128 27.8143 23.7684 40.1705 23.7684 40.1705L23.9077 40.2635C24.0316 42.1703 24.3414 44.9145 24.3414 44.9145H24.9608H25.5803C25.5803 44.9145 25.89 42.1858 26.0139 40.2635L26.1533 40.155C26.1688 40.155 42.7859 27.8143 28.4298 9.50493ZM24.9608 39.8914C24.9608 39.8914 24.2175 39.2558 24.0161 38.9301V38.8993L24.9144 18.9619C24.9144 18.8999 25.0073 18.8999 25.0073 18.9619L25.9055 38.8993V38.9301C25.7042 39.2558 24.9608 39.8914 24.9608 39.8914Z" fill="white"/>
</svg>
