<svg width="56" height="50" viewBox="0 0 56 50" fill="none" xmlns="http://www.w3.org/2000/svg">
<path d="M43.9741 17.3205C43.4614 17.1451 42.9301 16.9791 42.383 16.8222C42.4729 16.4575 42.5554 16.0975 42.6288 15.7437C43.8333 9.93337 43.0458 5.25256 40.3566 3.71143C37.7781 2.2337 33.561 3.77447 29.302 7.45792C28.8925 7.81212 28.4818 8.18713 28.0713 8.58015C27.7977 8.32011 27.5247 8.06883 27.2523 7.82847C22.7887 3.88989 18.3147 2.23011 15.6282 3.7757C13.0521 5.25772 12.2892 9.65813 13.3734 15.1646C13.4781 15.6965 13.6005 16.2396 13.7389 16.7918C13.1057 16.9705 12.4944 17.1609 11.9095 17.3635C6.67646 19.1766 3.33441 22.0182 3.33441 24.9658C3.33441 28.01 6.92211 31.0634 12.3727 32.9148C12.8029 33.0609 13.2492 33.199 13.7091 33.3302C13.5598 33.9275 13.43 34.5127 13.321 35.0836C12.2872 40.4945 13.0945 44.791 15.6637 46.2636C18.3175 47.7845 22.7713 46.2212 27.1082 42.4538C27.4509 42.156 27.7949 41.8402 28.1396 41.5092C28.5862 41.9367 29.0322 42.3412 29.4758 42.7207C33.6766 46.3131 37.8255 47.7637 40.3923 46.287C43.0435 44.7618 43.9051 40.1463 42.7865 34.5309C42.701 34.1021 42.6016 33.6639 42.49 33.218C42.8028 33.1261 43.1098 33.0313 43.4092 32.9326C49.0756 31.0669 52.7624 28.0506 52.7624 24.9658C52.7624 22.0076 49.3126 19.1468 43.9741 17.3205Z" fill="#1F2022"/>
<path d="M42.7451 30.9408C42.4748 31.0297 42.1975 31.1156 41.9149 31.199C41.2894 29.2309 40.4451 27.1381 39.412 24.976C40.3979 22.8653 41.2095 20.7993 41.8175 18.844C42.3232 18.9894 42.8139 19.1428 43.2868 19.3046C47.8608 20.8694 50.6508 23.183 50.6508 24.9657C50.6508 26.8647 47.6377 29.3297 42.7451 30.9408ZM40.715 34.9385C41.2097 37.4215 41.2803 39.6665 40.9527 41.4215C40.6583 42.9984 40.0663 44.0499 39.3343 44.4709C37.7766 45.367 34.4454 44.2022 30.8529 41.13C30.441 40.7778 30.0262 40.4017 29.6101 40.0037C31.0028 38.49 32.3948 36.7302 33.7533 34.7757C36.1427 34.565 38.4003 34.2205 40.4475 33.7502C40.5483 34.1544 40.6379 34.5509 40.715 34.9385ZM20.1855 44.3161C18.6636 44.8502 17.4515 44.8655 16.7188 44.4457C15.1597 43.552 14.5115 40.1023 15.3956 35.475C15.4969 34.945 15.6174 34.4006 15.7564 33.8442C17.7812 34.2892 20.0221 34.6094 22.4173 34.8023C23.785 36.7148 25.2172 38.4727 26.6604 40.0119C26.3451 40.3144 26.031 40.6024 25.7187 40.8738C23.8009 42.5397 21.8792 43.7216 20.1855 44.3161ZM13.0556 30.9291C10.6455 30.1105 8.65506 29.0465 7.29074 27.8855C6.06481 26.8421 5.44586 25.8063 5.44586 24.9657C5.44586 23.1771 8.1292 20.8957 12.6045 19.345C13.1476 19.1568 13.716 18.9795 14.3059 18.813C14.9244 20.8124 15.7358 22.9029 16.7149 25.0168C15.7231 27.1621 14.9002 29.2859 14.2757 31.3088C13.8551 31.1886 13.4477 31.0622 13.0556 30.9291ZM15.4456 14.7616C14.5167 10.0438 15.1336 6.48485 16.6861 5.5918C18.3397 4.64042 21.9963 5.99688 25.8502 9.39765C26.0965 9.61501 26.3438 9.84252 26.5919 10.0779C25.1558 11.6104 23.7367 13.355 22.3812 15.2562C20.0565 15.4703 17.8313 15.8143 15.7854 16.2749C15.6568 15.7607 15.5428 15.2555 15.4456 14.7616ZM36.7666 19.9936C36.2775 19.1541 35.7754 18.3343 35.2636 17.537C36.8406 17.7352 38.3516 17.9982 39.7706 18.32C39.3446 19.6768 38.8136 21.0954 38.1886 22.5498C37.7402 21.7038 37.266 20.8509 36.7666 19.9936ZM28.072 11.5776C29.0459 12.6262 30.0213 13.7969 30.9806 15.0672C30.0139 15.0218 29.0352 14.9982 28.0484 14.9982C27.0709 14.9982 26.0994 15.0213 25.1387 15.0659C26.099 13.8074 27.0828 12.6382 28.072 11.5776ZM19.3216 20.0081C18.8331 20.85 18.3677 21.6983 17.9263 22.5482C17.3114 21.0989 16.7854 19.6739 16.3557 18.2978C17.7659 17.9842 19.2698 17.7277 20.8368 17.5334C20.3178 18.338 19.8115 19.1639 19.3216 20.0081ZM20.882 32.5478C19.2629 32.3683 17.7365 32.1251 16.3266 31.8201C16.7631 30.4195 17.3008 28.964 17.9287 27.4835C18.3712 28.3328 18.8384 29.1814 19.33 30.0252C19.8307 30.8847 20.3495 31.7267 20.882 32.5478ZM28.1304 38.5019C27.1296 37.4288 26.1314 36.2418 25.1565 34.965C26.1029 35.0018 27.0678 35.0207 28.0484 35.0207C29.0559 35.0207 30.0518 34.9982 31.0321 34.9548C30.0696 36.2546 29.0977 37.4435 28.1304 38.5019ZM38.2087 27.4081C38.8694 28.9045 39.4263 30.3524 39.8685 31.7292C38.4354 32.0541 36.888 32.3158 35.2577 32.5102C35.7709 31.7022 36.2774 30.8684 36.7751 30.0107C37.2786 29.143 37.7567 28.274 38.2087 27.4081ZM34.946 28.9624C34.1734 30.2938 33.3801 31.5647 32.5748 32.7644C31.1081 32.8686 29.5928 32.9223 28.0484 32.9223C26.5102 32.9223 25.014 32.8748 23.5732 32.7819C22.7355 31.5665 21.925 30.2917 21.1573 28.9738C20.3916 27.6595 19.687 26.3341 19.0485 25.0161C19.6868 23.6951 20.3897 22.3681 21.151 21.0562L21.1508 21.0565C21.9142 19.741 22.7175 18.4725 23.5475 17.2647C25.0175 17.1542 26.5249 17.0966 28.0483 17.0966C29.5786 17.0966 31.088 17.1547 32.5575 17.2661C33.3749 18.4651 34.1728 19.7295 34.9391 21.0451C35.7141 22.3755 36.426 23.6936 37.0699 24.9863C36.428 26.3012 35.7176 27.6326 34.946 28.9624ZM39.3019 5.52937C40.9571 6.47795 41.6007 10.3036 40.5608 15.3201C40.4945 15.6402 40.4198 15.9663 40.3387 16.2967C38.288 15.8265 36.0612 15.4765 33.7298 15.2592C32.3716 13.3371 30.9642 11.5897 29.5515 10.0769C29.9313 9.71382 30.3106 9.36757 30.6883 9.04083C34.3374 5.88488 37.748 4.63884 39.3019 5.52937Z" fill="white"/>
<path d="M28.0484 20.5795C30.486 20.5795 32.4621 22.5433 32.4621 24.9658C32.4621 27.3883 30.486 29.3521 28.0484 29.3521C25.6108 29.3521 23.6346 27.3883 23.6346 24.9658C23.6346 22.5433 25.6108 20.5795 28.0484 20.5795Z" fill="#1F2022"/>
</svg>
