<svg width="66" height="50" viewBox="0 0 66 50" fill="none" xmlns="http://www.w3.org/2000/svg">
<path d="M56.7913 28.7797C54.4951 28.7918 52.4995 29.3504 50.8284 30.1761C50.2153 28.9497 49.6022 27.8568 49.494 27.0553C49.3738 26.1203 49.2295 25.5495 49.3738 24.4324C49.518 23.3152 50.1672 21.7244 50.1552 21.603C50.1432 21.4815 50.0109 20.9108 48.6885 20.8987C47.3661 20.8865 46.224 21.1537 46.0918 21.5058C45.9596 21.858 45.7071 22.6594 45.5388 23.4852C45.3104 24.6995 42.894 29.0347 41.5115 31.3055C41.0667 30.419 40.682 29.6418 40.5978 29.0225C40.4776 28.0875 40.3333 27.5168 40.4776 26.3996C40.6219 25.2824 41.271 23.6916 41.259 23.5702C41.247 23.4488 41.1148 22.878 39.7924 22.8659C38.4699 22.8537 37.3279 23.1209 37.1956 23.473C37.0634 23.8252 36.9191 24.6509 36.6426 25.4524C36.3661 26.2539 33.1563 33.4912 32.3148 35.3613C31.882 36.3206 31.5093 37.0857 31.2448 37.6078C31.2448 37.6078 31.2328 37.6443 31.1967 37.705C30.9683 38.1543 30.8361 38.3971 30.8361 38.3971C30.8361 38.3971 30.8361 38.3971 30.8361 38.4093C30.6557 38.7372 30.4634 39.0407 30.3672 39.0407C30.2951 39.0407 30.1628 38.1664 30.3913 36.9764C30.8721 34.4627 32.0142 30.5526 32.0022 30.419C32.0022 30.3461 32.2186 29.6661 31.2568 29.314C30.3191 28.9618 29.9825 29.5447 29.8984 29.5447C29.8142 29.5447 29.7541 29.7511 29.7541 29.7511C29.7541 29.7511 30.8 25.3552 27.7585 25.3552C25.859 25.3552 23.2382 27.456 21.9399 29.3504C21.1224 29.7997 19.3792 30.759 17.5158 31.7912C16.8066 32.1919 16.0732 32.5926 15.388 32.9691C15.3399 32.9205 15.2918 32.8598 15.2437 32.8112C11.565 28.8404 4.76065 26.0353 5.04918 20.7044C5.15738 18.7614 5.81858 13.6613 18.1169 7.46818C28.2393 2.42871 36.294 3.82519 37.6885 6.92173C39.6842 11.3419 33.3727 19.5508 22.9137 20.7408C18.9224 21.1901 16.8306 19.6358 16.3016 19.0529C15.7486 18.4457 15.6645 18.4093 15.4601 18.5307C15.1235 18.7129 15.3399 19.2593 15.4601 19.575C15.7727 20.4008 17.059 21.858 19.235 22.5744C21.1585 23.2059 25.835 23.558 31.4973 21.348C37.8328 18.8707 42.7858 11.9855 41.3312 6.21742C39.8765 0.364355 30.259 -1.56643 21.1585 1.70012C15.7486 3.64304 9.88197 6.70315 5.66229 10.6862C0.649179 15.422 -0.144263 19.5386 0.180327 21.263C1.34645 27.3832 9.70164 31.3662 13.0437 34.317C12.8754 34.4141 12.7191 34.4991 12.5869 34.572C10.9158 35.4099 4.54426 38.7736 2.95738 42.3316C1.1541 46.3631 3.2459 49.2532 4.62841 49.6418C8.92022 50.844 13.3322 48.6825 15.7005 45.1124C18.0689 41.5422 17.7803 36.9035 16.6863 34.7784C16.6743 34.7542 16.6623 34.7299 16.6383 34.7056C17.071 34.4506 17.5158 34.1834 17.9486 33.9284C18.8022 33.4184 19.6437 32.9448 20.365 32.5562C19.9563 33.6855 19.6557 35.0334 19.5115 36.9764C19.3311 39.2593 20.2568 42.2223 21.471 43.388C22.012 43.898 22.6492 43.9102 23.0579 43.9102C24.4765 43.9102 25.1137 42.7201 25.823 41.3115C26.6885 39.5872 27.4699 37.5835 27.4699 37.5835C27.4699 37.5835 26.4962 42.9994 29.141 42.9994C30.1027 42.9994 31.0765 41.7365 31.5093 41.0929V41.1051C31.5093 41.1051 31.5333 41.0687 31.5814 40.9837C31.6776 40.8258 31.7377 40.7286 31.7377 40.7286V40.7044C32.1224 40.0243 32.988 38.4821 34.2743 35.9199C35.9333 32.6169 37.5322 28.4882 37.5322 28.4882C37.5322 28.4882 37.6765 29.4961 38.1694 31.1719C38.4579 32.1555 39.059 33.2362 39.5399 34.2806C39.1552 34.827 38.9148 35.1306 38.9148 35.1306C38.9148 35.1306 38.9148 35.1306 38.9268 35.1427C38.6142 35.5556 38.2776 36.0049 37.9049 36.4421C36.5945 38.0207 35.0317 39.83 34.8153 40.3522C34.5628 40.9715 34.623 41.4208 35.1038 41.7851C35.4525 42.0523 36.0776 42.0887 36.7148 42.0523C37.8929 41.9673 38.7224 41.6758 39.1311 41.4937C39.7683 41.263 40.5137 40.9108 41.2109 40.3886C42.4973 39.4293 43.2787 38.0571 43.2066 36.2478C43.1705 35.252 42.8459 34.2563 42.4492 33.3212C42.5694 33.1512 42.6776 32.9812 42.7978 32.8112C44.8295 29.8118 46.4044 26.521 46.4044 26.521C46.4044 26.521 46.5486 27.5289 47.0415 29.2047C47.282 30.0547 47.7749 30.9776 48.2076 31.8762C46.2962 33.4427 45.118 35.2642 44.6973 36.4542C43.9399 38.6643 44.529 39.66 45.647 39.8908C46.1519 40.0001 46.8732 39.7572 47.4022 39.5265C48.0754 39.3079 48.8689 38.9314 49.6262 38.3729C50.9126 37.4135 52.1508 36.0778 52.0787 34.2684C52.0426 33.4427 51.8262 32.6291 51.5257 31.8398C53.1486 31.1597 55.2404 30.7833 57.9093 31.099C63.6317 31.779 64.7617 35.3856 64.5454 36.9035C64.329 38.4214 63.1268 39.2472 62.7301 39.5022C62.3333 39.7572 62.2011 39.8422 62.2372 40.0243C62.2852 40.2915 62.4776 40.2794 62.8142 40.2308C63.2831 40.1458 65.8197 39.0043 65.9279 36.2113C66.1082 32.6412 62.7421 28.7432 56.7913 28.7797ZM12.647 43.813C10.7475 45.9017 8.10273 46.691 6.96065 46.0231C5.73443 45.3067 6.2153 42.2223 8.54754 40.0122C9.96612 38.6643 11.7934 37.4135 13.0076 36.6485C13.2842 36.4785 13.6929 36.2356 14.1858 35.932C14.2699 35.8835 14.318 35.8592 14.318 35.8592C14.4142 35.7985 14.5104 35.7378 14.6066 35.677C15.4601 38.8343 14.6426 41.6151 12.647 43.813ZM26.4721 34.317C25.8109 35.9442 24.4284 40.1093 23.5869 39.8786C22.8656 39.6843 22.4208 36.5271 23.4426 33.4062C23.9596 31.8398 25.0536 29.9697 25.6907 29.2411C26.7246 28.0753 27.8667 27.6868 28.1432 28.1603C28.4918 28.7797 26.8809 33.297 26.4721 34.317ZM37.8809 39.83C37.6044 39.9758 37.3399 40.0729 37.2197 40.0001C37.1355 39.9515 37.3399 39.7572 37.3399 39.7572C37.3399 39.7572 38.7705 38.2028 39.3355 37.4985C39.6601 37.0857 40.0448 36.5999 40.4536 36.0535V36.2113C40.4536 38.0693 38.6743 39.32 37.8809 39.83ZM46.6809 37.8021C46.4765 37.6564 46.5126 37.1707 47.1978 35.6528C47.4623 35.0577 48.0874 34.062 49.1574 33.1027C49.2776 33.4913 49.3618 33.8677 49.3497 34.2198C49.3377 36.5635 47.6787 37.4378 46.6809 37.8021Z" fill="#1F2022"/>
</svg>
