<svg width="25" height="26" viewBox="0 0 25 26" fill="none" xmlns="http://www.w3.org/2000/svg">
<path fill-rule="evenodd" clip-rule="evenodd" d="M12.6215 1.16297C12.8641 1.58111 12.844 2.10168 12.5696 2.49973C11.7372 3.70741 11.25 5.16992 11.25 6.75001C11.25 10.8921 14.6079 14.25 18.75 14.25C20.3301 14.25 21.7926 13.7627 23.0002 12.9304C23.3984 12.6561 23.9189 12.6359 24.337 12.8785C24.7551 13.1211 24.9959 13.5831 24.9552 14.0649C24.4141 20.4706 19.045 25.5 12.5 25.5C5.59644 25.5 0 19.9036 0 13C0 6.45496 5.02939 1.08591 11.4351 0.544796C11.9169 0.504109 12.3789 0.744834 12.6215 1.16297ZM9.2803 3.52938C5.33742 4.8694 2.5 8.60381 2.5 13C2.5 18.5229 6.97715 23 12.5 23C16.8962 23 20.6306 20.1626 21.9706 16.2197C20.9595 16.5635 19.876 16.75 18.75 16.75C13.2271 16.75 8.75 12.2729 8.75 6.75001C8.75 5.62401 8.9365 4.54048 9.2803 3.52938Z" fill="#1F2022"/>
</svg>
