<svg width="21" height="20" viewBox="0 0 21 20" fill="none" xmlns="http://www.w3.org/2000/svg">
<path fill-rule="evenodd" clip-rule="evenodd" d="M10.96 20C5.43718 20 0.960022 15.5228 0.960022 10C0.960022 4.47718 5.43718 0 10.96 0C16.4828 0 20.96 4.47718 20.96 10C20.96 15.5228 16.4828 20 10.96 20ZM8.89248 17.9183C5.65893 17.0764 3.20367 14.3061 2.82814 10.9091H6.4601C6.66392 13.4211 7.50466 15.8323 8.89248 17.9183ZM13.0276 17.9183C14.4154 15.8323 15.2561 13.4211 15.4599 10.9091H19.0919C18.7164 14.3061 16.2611 17.0764 13.0276 17.9183ZM13.6349 10.9091C13.4066 13.3756 12.4779 15.7255 10.96 17.6811C9.44211 15.7255 8.51346 13.3756 8.2851 10.9091H13.6349ZM8.2851 9.09091H13.6349C13.4066 6.62436 12.4779 4.27445 10.96 2.31891C9.44211 4.27445 8.51347 6.62436 8.2851 9.09091ZM6.4601 9.09091H2.82814C3.20367 5.69382 5.65894 2.92364 8.8925 2.08164C7.50467 4.16764 6.66393 6.57891 6.4601 9.09091ZM13.0276 2.08164C14.4154 4.16764 15.2561 6.57891 15.4599 9.09091H19.0919C18.7164 5.69382 16.2611 2.92364 13.0276 2.08164Z" fill="white"/>
</svg>
