<?xml version="1.0" encoding="UTF-8"?>
<svg id="Layer_2" data-name="Layer 2" xmlns="http://www.w3.org/2000/svg" viewBox="0 0 312.37 409.45">
  <defs>
    <style>
      .cls-1 {
        fill: #030303;
      }
    </style>
  </defs>
  <g id="Layer_1-2" data-name="Layer 1">
    <path class="cls-1" d="M158.62,409.45h-4.8c-.16-.2-.27-.48-.47-.59-49.17-26.08-98.35-52.15-147.54-78.2-3.26-1.73-5.68-3.95-5.69-7.93-.01-3.99,2.37-6.24,5.64-7.97,12.46-6.57,24.89-13.19,37.32-19.8,7.1-3.77,14.18-7.57,21.68-11.57-1.59-.87-2.73-1.5-3.89-2.12-18.18-9.67-36.35-19.36-54.55-28.99-3.49-1.84-6.27-4.01-6.18-8.43,.09-4.21,2.81-6.27,6.17-8.04,14.11-7.42,28.18-14.92,42.25-22.4,5.23-2.78,10.44-5.6,16.16-8.66-1.5-.85-2.49-1.43-3.5-1.97-18.42-9.79-36.84-19.58-55.27-29.34-3.08-1.63-5.57-3.63-5.79-7.46-.25-4.37,2.25-6.74,5.82-8.62,18.32-9.68,36.6-19.45,54.89-29.2,1.19-.64,2.62-.97,3.5-2.33-2.77-1.48-5.34-2.87-7.92-4.24-16.89-8.98-33.8-17.93-50.68-26.93-4.83-2.58-6.66-6.18-5.36-10.32,.96-3.05,3.46-4.55,6.1-5.94,26.65-14.12,53.29-28.25,79.91-42.42C108.9,24.02,131.36,12,153.82,0c1.6,0,3.2,0,4.8,0,.16,.2,.27,.48,.47,.59,49.17,26.08,98.35,52.15,147.54,78.2,3.26,1.73,5.68,3.95,5.69,7.93,.01,3.99-2.37,6.24-5.64,7.97-12.46,6.57-24.89,13.19-37.32,19.8-7.1,3.77-14.18,7.57-21.68,11.57,1.59,.87,2.73,1.51,3.89,2.12,18.18,9.67,36.35,19.37,54.55,28.99,3.49,1.84,6.27,4.02,6.18,8.43-.09,4.21-2.81,6.27-6.17,8.04-13.52,7.11-27,14.31-40.49,21.48-5.81,3.09-11.62,6.2-17.93,9.58,1.51,.86,2.49,1.44,3.5,1.98,18.42,9.79,36.84,19.58,55.27,29.33,3.08,1.63,5.57,3.63,5.79,7.46,.25,4.37-2.25,6.74-5.82,8.62-18.45,9.73-36.85,19.55-55.25,29.37-1.06,.57-2.46,.78-3.03,2.21,.9,.48,1.71,.92,2.53,1.36,18.54,9.85,37.08,19.69,55.6,29.55,4.93,2.63,6.63,5.53,5.85,9.74-.66,3.56-3.37,5.2-6.25,6.72-26.64,14.13-53.29,28.25-79.91,42.42-22.48,11.97-44.94,23.99-67.4,35.98ZM25.58,86.68c1.33,.77,2.34,1.4,3.38,1.96,41.31,21.94,82.64,43.84,123.91,65.86,2.57,1.37,4.4,1.24,6.89-.09,41.15-21.96,82.36-43.81,123.55-65.69,1.09-.58,2.14-1.25,3.47-2.02-1.37-.76-2.4-1.36-3.45-1.91-41.19-21.87-82.41-43.71-123.54-65.69-2.74-1.46-4.66-1.29-7.26,.1-29.76,15.91-59.59,31.71-89.4,47.54-12.43,6.6-24.86,13.21-37.53,19.95Zm-.02,235.96c1.43,.81,2.54,1.46,3.68,2.06,41.19,21.88,82.39,43.72,123.54,65.68,2.52,1.35,4.36,1.36,6.89,.01,36.45-19.47,72.96-38.82,109.46-58.19,5.84-3.1,11.67-6.21,17.86-9.51-18.61-9.88-36.82-19.5-54.95-29.25-2.03-1.09-3.23-.07-4.69,.71-21.48,11.39-43.01,22.69-64.4,34.27-4.73,2.56-8.7,2.57-13.43,.01-21.5-11.63-43.15-23-64.74-34.47-1.39-.74-2.52-1.51-4.34-.53-18.14,9.74-36.34,19.36-54.88,29.21Zm.47-78.33c1,.56,1.98,1.13,2.99,1.66,41.28,21.93,82.59,43.82,123.82,65.84,2.54,1.36,4.39,1.26,6.87-.06,37.25-19.89,74.56-39.68,111.86-59.5,4.96-2.64,9.92-5.29,15.04-8.02-.57-.51-.82-.84-1.15-1.02-17.71-9.41-35.45-18.76-53.1-28.27-2.11-1.13-3.47-.31-5.1,.56-21.58,11.46-43.21,22.83-64.72,34.44-4.47,2.41-8.24,2.36-12.7-.05-21.5-11.62-43.14-22.96-64.69-34.49-2.1-1.12-3.7-1.21-5.84-.05-16.84,9.07-33.75,17.99-50.63,26.99-.91,.48-2.04,.71-2.64,1.96Zm77.5-37.48c0-19.92,0-39.19,0-58.46,0-.95-.02-1.79-1.06-2.33-3.95-2.05-7.87-4.16-11.82-6.25-.3,.64-.49,.85-.49,1.07-.02,18.91-.03,37.81-.04,56.72,0,1.07-.11,2.11,1.08,2.74,3.95,2.06,7.88,4.16,12.32,6.51Zm118.82-67.3c-4,2.12-7.4,4.1-10.96,5.73-2.04,.93-2.54,2.17-2.52,4.29,.1,11.72,.05,23.44,.05,35.17v22.12c3.98-2.1,7.4-4.04,10.95-5.73,1.96-.93,2.56-2.14,2.54-4.31-.12-12.52-.06-25.04-.06-37.56,0-6.34,0-12.69,0-19.71Zm-72.79,31.35c0,19.67,0,38.27,0,56.88,0,3.23,3.43,6.75,6.61,6.8,3.1,.05,6.71-3.53,6.71-6.7,0-17.55,0-35.1,0-52.65,0-1.15-.1-2.3-.19-4.13-4.34,3.03-8.49,3.17-13.13-.2Zm-16.36,51.7c0-19.87,0-39.05,.01-58.24,0-1.13-.11-2.1-1.25-2.68-3.86-1.99-7.7-4-11.55-6-.31,.6-.53,.83-.53,1.06-.03,18.92-.03,37.85-.07,56.77,0,1.32,.32,2.26,1.58,2.9,3.76,1.92,7.48,3.92,11.8,6.19Zm59.39-67.26c-3.94,2.07-7.02,3.89-10.27,5.33-2.43,1.07-3.18,2.52-3.16,5.18,.14,15.99,.07,31.98,.07,47.98v8.78c3.88-2.06,7.18-4,10.64-5.58,2.16-.98,2.78-2.32,2.76-4.61-.11-12.26-.05-24.52-.05-36.78,0-6.51,0-13.02,0-20.3Zm-118.81-15.57c-4.05,2.14-7.53,4.06-11.09,5.81-1.61,.8-2.33,1.75-2.32,3.66,.1,10.79,.05,21.58,.04,32.37,0,1.2-.14,2.38,1.23,3.08,3.98,2.03,7.93,4.13,12.14,6.33v-51.25Zm164.89,51.25c4.25-2.22,8.21-4.31,12.18-6.36,1.37-.71,1.17-1.93,1.17-3.11,0-10.79,0-21.58,0-32.37,0-1.18,.14-2.31-1.29-3.03-3.98-2-7.89-4.15-12.06-6.37v51.25ZM25.43,165.38c6.54,3.47,12.52,6.65,18.55,9.84v-19.65c-6.2,3.28-12.02,6.35-18.55,9.8Zm261.58,0c-6.49-3.42-12.4-6.54-18.66-9.84v19.75c6.18-3.28,12.08-6.42,18.66-9.91Zm-70.03-71.6c-21.24,9.67-42.41,19.49-63.56,29.38-4.94,2.31-6.56,6.88-4.47,11.2,1.98,4.09,6.31,5.48,11.24,3.44,3.19-1.32,6.28-2.84,9.41-4.29,17.69-8.18,35.38-16.38,53.09-24.52,3.62-1.66,6.33-3.89,6.36-8.25-.08-6.1-6-9.72-12.08-6.95Zm20.61-4.44c-.03,4.69,3.39,8.26,7.83,8.18,4.45-.08,7.75-3.72,7.62-8.4-.13-4.56-3.37-7.73-7.84-7.68-4.44,.05-7.58,3.31-7.61,7.9Z"/>
  </g>
</svg>