<?xml version="1.0" encoding="UTF-8"?>
<svg id="Layer_2" data-name="Layer 2" xmlns="http://www.w3.org/2000/svg" viewBox="0 0 383.13 326.37">
  <defs>
    <style>
      .cls-1 {
        fill: #010101;
      }
    </style>
  </defs>
  <g id="Layer_1-2" data-name="Layer 1">
    <path class="cls-1" d="M383.13,321.77c-2.89,3.82-6.75,4.6-11.41,4.6-120.33-.1-240.66-.08-361-.08-8.68,0-10.71-2.06-10.71-10.86,0-8.23-.05-16.46,.01-24.69,.1-11.48,7.36-20.61,18.59-22.98,2.73-.57,3.14-1.67,3.13-4.13-.07-58.1-.06-116.21-.05-174.31,0-17.3,10.4-27.74,27.61-27.75,7.73,0,15.46-.11,23.19,.06,2.53,.06,3.08-.76,3.06-3.15-.12-10.6-.09-21.2-.05-31.79C75.58,10.77,86.33,.03,102.33,.02c59.48-.03,118.96-.03,178.44,0,16.19,0,26.81,10.74,26.86,27,.03,9.85,0,19.7,0,29.55q0,5.01,5.2,5.01c7.36,0,14.71-.03,22.07,0,15.74,.07,26.53,10.84,26.53,26.58,.02,58.23,.03,116.46-.06,174.69,0,3.04,.54,4.38,3.83,5.09,8.77,1.9,14.21,7.72,17.06,16.11,.22,.63-.18,1.58,.87,1.81v35.91Zm-191.93-93.43c32.67,0,65.33-.03,98,.06,2.62,0,3.56-.38,3.55-3.35-.11-56.35-.11-112.7,0-169.05,0-3.07-.94-3.58-3.73-3.58-64.96,.08-129.92,.08-194.87,0-2.78,0-3.74,.49-3.74,3.57,.11,56.35,.11,112.7,0,169.05,0,2.96,.92,3.36,3.55,3.36,32.42-.09,64.83-.06,97.25-.06Zm0,82.98h172.07c.75,0,1.51-.09,2.24,.02,2.08,.3,2.77-.46,2.71-2.62-.16-5.23-.05-10.47-.05-15.71,0-8.12-2.83-10.92-11.03-10.92-38.03,0-76.06,.04-114.09-.08-3.22-.01-4.31,.88-4.91,4.04-2.26,11.86-10.57,18.5-22.62,18.51-15.46,.01-30.92,0-46.38,0-14.09,0-21.74-6.14-24.48-19.97-.41-2.05-1.07-2.55-3.05-2.55-39.15,.05-78.3,.03-117.45,.06-5.71,0-9.07,3.37-9.14,9.03-.07,5.48,.2,10.98-.1,16.45-.17,3.18,.79,3.81,3.86,3.8,57.48-.1,114.96-.08,172.44-.08Zm.56-68.02H115.44c-25.07,0-50.13,.06-75.2-.07-2.98-.02-3.76,.79-3.64,3.69,.24,5.35,.3,10.73-.01,16.08-.2,3.42,.84,4.22,4.22,4.21,88.67-.1,177.33-.08,266-.08,12.22,0,24.44-.07,36.66,.06,2.45,.03,3.15-.63,3.07-3.07-.18-5.61-.27-11.23,.02-16.83,.17-3.27-.71-4.08-4.03-4.07-50.26,.12-100.51,.09-150.77,.09Zm-116.24-90.89c0-24.18,0-48.36,0-72.54,0-1.7,.49-3.44-2.42-3.39-8.6,.16-17.2-.07-25.8,.1-6.54,.13-10.6,4.42-10.6,11.02-.03,45.99,0,91.99-.08,137.98,0,2.42,.75,2.83,2.94,2.8,10.84-.11,21.69-.15,32.53,.02,2.76,.04,3.52-.6,3.5-3.45-.13-24.18-.07-48.36-.07-72.54Zm232.12,0c0,24.18,.06,48.36-.07,72.54-.02,2.85,.75,3.5,3.51,3.45,10.72-.17,21.44-.15,32.16,0,2.53,.03,3.33-.48,3.32-3.19-.09-45.62-.06-91.24-.07-136.86,0-7.71-4.03-11.75-11.73-11.8-7.85-.05-15.71,.15-23.56-.09-3.11-.1-3.62,.99-3.61,3.79,.1,24.06,.06,48.11,.06,72.17ZM191.56,37.5h92.33c8.78,0,8.42-.02,8.87-8.82,.5-9.84-5.29-13.85-13.7-13.82-58.32,.22-116.63,.11-174.95,.12-1.12,0-2.25-.03-3.36,.03-5.84,.32-10,4.46-10.23,10.27-.11,2.74,.18,5.5-.1,8.22-.33,3.17,.53,4.11,3.94,4.1,32.4-.16,64.8-.09,97.19-.09Zm-31.97,244.58c.75,5.42,2.84,7.48,7.65,7.49,16.3,.04,32.6,0,48.9,.02,3.18,0,5.48-1.31,6.83-4.22,1.07-2.3,.96-3.41-2.2-3.37-13.31,.17-26.63,.07-39.94,.07h-21.24Z"/>
    <path class="cls-1" d="M191.2,211.36c-19.33,0-38.65,0-57.98,0-1.25,0-2.5,.03-3.73-.11-3.91-.46-6.66-3.47-6.71-7.24-.05-3.76,2.6-6.81,6.54-7.4,1.22-.18,2.48-.2,3.73-.2,39.03,0,78.05,0,117.08,0,.75,0,1.5-.03,2.24,.02,4.89,.31,8.08,3.34,8.01,7.59-.06,4.29-3.27,7.31-8.21,7.32-19.58,.06-39.15,.03-58.73,.03-.75,0-1.5,0-2.24,0Z"/>
    <path class="cls-1" d="M191.59,161.74c-20.2,0-40.4,.03-60.6-.02-6.22-.02-9.94-5.38-7.47-10.55,1.23-2.57,3.38-3.93,6.14-4.32,.98-.14,1.99-.08,2.99-.08,39.28,0,78.56,0,117.84,0,1,0,2.01-.05,2.99,.07,4.2,.54,7.15,3.97,6.89,7.92-.26,3.92-3.24,6.84-7.42,6.92-6.36,.12-12.72,.04-19.08,.04-14.09,0-28.18,0-42.27,0Z"/>
    <path class="cls-1" d="M176.61,186.52c-14.59,0-29.18,0-43.76,0-1.25,0-2.5,.03-3.73-.13-3.47-.46-6.08-3.32-6.32-6.81-.22-3.28,1.88-6.41,5.06-7.49,1.68-.57,3.43-.54,5.18-.54,29.05,0,58.1,0,87.16,0,1,0,2-.04,2.99,.07,4.36,.48,7.33,3.6,7.27,7.57-.06,4.19-3.19,7.26-7.83,7.28-15.34,.07-30.67,.03-46.01,.03Z"/>
    <path class="cls-1" d="M243.54,100.9c.01,3.83-1.33,7.64-4.1,10.89-4.2,4.93-8.42,9.85-12.7,14.71-3.24,3.67-7.6,4.24-10.89,1.54-3.46-2.83-3.71-7.36-.47-11.23,3.6-4.3,7.18-8.62,11.03-12.69,2.34-2.47,2.59-4.33,.14-6.91-3.85-4.06-7.42-8.41-11.02-12.7-3.31-3.93-3.2-8.36,.15-11.26,3.39-2.93,7.74-2.39,11.16,1.5,4.19,4.77,8.3,9.62,12.45,14.43,2.79,3.24,4.21,7,4.26,11.72Z"/>
    <path class="cls-1" d="M139.62,100.55c.03-4.27,1.39-8.04,4.2-11.28,4.15-4.81,8.26-9.65,12.45-14.43,3.43-3.92,7.74-4.52,11.15-1.64,3.38,2.85,3.56,7.36,.29,11.25-3.84,4.58-7.74,9.12-11.73,13.57-1.65,1.85-1.64,3.34,0,5.17,3.82,4.27,7.55,8.62,11.27,12.98,3.69,4.33,3.71,8.83,.14,11.83-3.44,2.88-7.85,2.12-11.4-1.97-3.92-4.52-7.79-9.08-11.73-13.57-2.99-3.42-4.67-7.31-4.63-11.89Z"/>
    <path class="cls-1" d="M203.59,75.12c-1.47,8.45-3.05,17.5-4.64,26.55-1.49,8.44-2.98,16.88-4.5,25.32-.65,3.63-2.59,6.26-6.37,6.88-3.4,.56-6.04-.86-7.78-3.9-1.07-1.86-.94-3.87-.6-5.82,2.98-17.01,5.97-34.01,9.04-51,.87-4.82,4.28-7.3,8.73-6.65,3.87,.56,6.31,3.74,6.12,8.63Z"/>
    <path class="cls-1" d="M252.89,186.5c-4.26,0-7.54-3.35-7.43-7.57,.1-3.99,3.48-7.29,7.46-7.29,4.1,0,7.58,3.59,7.47,7.69-.12,4.06-3.38,7.18-7.49,7.17Z"/>
  </g>
</svg>