<?xml version="1.0" encoding="UTF-8"?>
<svg id="Layer_2" data-name="Layer 2" xmlns="http://www.w3.org/2000/svg" viewBox="0 0 346.68 383.14">
  <defs>
    <style>
      .cls-1 {
        fill: #040404;
      }
    </style>
  </defs>
  <g id="Layer_1-2" data-name="Layer 1">
    <g>
      <path class="cls-1" d="M288.56,0c1.03,1.42,2.71,.78,4.05,1.16,19.5,5.57,29.42,26.82,20.92,45.29-1.14,2.47-1.62,3.46,1.96,3.51,18.55,.24,30.97,12.84,31.14,31.43,.11,11.6,.02,23.2,.02,34.79,0,51.63,.01,103.26,0,154.89,0,16.12-8.72,27.94-23.22,31.59-3.28,.83-6.64,.97-10.02,.97-36.79,0-73.57,.06-110.36-.1-3.73-.02-3.92,1.02-3.13,4.15,2.52,9.88,4.82,19.82,7.07,29.77,.54,2.38,1.29,3.58,4.1,3.42,5.1-.29,10.22-.15,15.33-.07,13.66,.24,23.26,9.83,23.1,23.52-.04,3.53,1.11,4.01,4.15,3.9,5.98-.23,11.97-.08,17.95-.06,5.71,.02,9.1,2.92,9,7.64-.1,4.58-3.4,7.32-8.95,7.32-58.98,0-117.97,0-176.95,0-6.48,0-12.97,0-19.45,0-5.83-.01-9.2-2.72-9.25-7.4-.05-4.71,3.33-7.55,9.08-7.57,5.99-.02,11.98-.21,17.95,.08,3.22,.15,4.1-.63,4.07-3.98-.13-13.63,9.51-23.22,23.19-23.45,4.36-.07,8.77-.38,13.08,.09,4.38,.48,5.96-1.09,6.8-5.31,1.89-9.51,4.29-18.92,6.69-28.32,.75-2.95,.18-3.71-2.96-3.7-37.16,.11-74.32,.09-111.48,.06-16.05-.01-27.87-8.82-31.53-23.34-.74-2.92-.89-5.91-.9-8.9,0-63.1-.02-126.2,0-189.3,0-16.16,9.05-28.06,23.78-31.53,3.07-.72,6.19-.66,9.3-.66,65.34,0,130.69-.03,196.03,.06,2.81,0,4.5-.74,6.05-3.15,5.31-8.28,11.18-16.21,16.26-24.62,6.52-10.78,14.46-19.47,27.39-22.17h9.73Zm-65.71,65.06c-1-.11-1.37-.19-1.74-.19-63.47,0-126.94-.03-190.42,.02-9.38,0-15.65,6.29-15.67,15.84-.08,46.51-.02,93.03-.1,139.54,0,2.63,.97,3.05,3.24,3,5.61-.13,11.22-.1,16.83-.02,5.45,.07,8.85,3.02,8.87,7.51,.01,4.58-3.28,7.4-8.82,7.44-5.49,.04-10.98,.2-16.46-.07-3.1-.15-3.71,.97-3.66,3.81,.16,9.85,.04,19.7,.07,29.55,.04,10.97,6.17,17.13,17.18,17.14,94.15,.02,188.3,.02,282.44,0,10.91,0,17.01-6.25,17.05-17.27,.03-9.6-.19-19.21,.1-28.8,.11-3.73-1.06-4.44-4.58-4.43-75.82,.11-151.63,.08-227.45,.08-1.49,0-3,.04-4.48-.13-3.55-.42-6.15-3.18-6.44-6.68-.3-3.61,2.01-6.94,5.63-7.74,1.68-.37,3.46-.4,5.19-.41,75.94-.02,151.88-.04,227.82,.06,3.39,0,4.3-.81,4.29-4.25-.12-45.39-.08-90.78-.09-136.18,0-1.37,0-2.75-.15-4.11-.89-8.13-6.76-13.64-14.91-13.88-4.36-.13-8.74,.15-13.09-.1-2.67-.15-4.32,.83-5.95,2.84-20.57,25.2-41.15,50.39-61.92,75.43-3.02,3.64-4.78,6.89-2.8,11.6,.74,1.76,.56,3.93,.7,5.91,1.26,18.18-10.53,34.33-27.92,38.15-8.15,1.79-16.39,.67-24.6,.42-9.77-.3-18.69,1.69-26.22,8.6-4.34,3.98-10.6,1.99-12.12-3.66-3.88-14.39-6.14-28.95-4.51-43.96,2.42-22.34,17.52-39.41,39.75-42.21,8.58-1.08,13.2-4.62,17.45-11.48,8.64-13.92,18.09-27.35,27.48-41.38Zm61.3-50.14c-6.57,.27-11.6,2.84-15.11,8.08-14.21,21.18-28.36,42.4-42.61,63.56-1.17,1.74-1.02,2.52,.68,3.73,5.98,4.26,11.91,8.6,17.68,13.13,2.06,1.62,3.09,1.46,4.69-.54,6.28-7.89,12.74-15.64,19.13-23.45,9.7-11.85,19.48-23.65,29.08-35.59,4.64-5.77,5.25-12.3,2.05-18.92-3.16-6.53-8.74-9.59-15.59-9.99ZM154.65,189.54c8.95-4.46,18.01-5.56,27.31-5.33,5.1,.12,10.2,.48,15.3,.41,17.69-.27,24.98-16.54,19.73-31.8-.4-1.18-1.26-1.79-2.15-2.46-7.79-5.77-15.59-11.55-23.38-17.33-.89-.66-1.71-1.27-2.95-1.39-13.61-1.31-27.88,7.26-32.78,20.02-4.73,12.34-3.44,24.9-1.09,37.88Zm18.69,178.62c4.36,0,8.72,0,13.08,0,15.07,0,30.14,.02,45.21-.05,1.01,0,2.76,.97,2.99-1.05,.68-5.98-1.24-11.27-8.44-11.28-35.24-.03-70.49-.04-105.73,.02-5.57,0-8.15,3.09-8.53,8.68-.22,3.27,.92,3.77,3.9,3.75,19.18-.14,38.36-.07,57.54-.07Zm-.4-27.36c5.6,0,11.2-.07,16.79,.04,2.01,.04,2.68-.5,2.18-2.54-2.65-10.85-5.29-21.7-7.82-32.58-.39-1.68-1.1-2.15-2.75-2.12-5.22,.09-10.46,.19-15.67-.04-2.35-.1-2.91,.96-3.36,2.86-2.45,10.51-4.93,21.02-7.52,31.5-.6,2.42,.09,3,2.46,2.93,5.22-.15,10.45-.05,15.67-.05ZM237.72,116.97c-.47-.43-.81-.79-1.2-1.08-6.09-4.54-12.22-9.02-18.25-13.63-1.85-1.41-2.31,.02-3.05,1.13-3.81,5.69-7.57,11.4-11.45,17.04-1,1.45-1.22,2.3,.46,3.48,5.18,3.66,10.26,7.48,15.31,11.33,1.41,1.07,2.26,1.35,3.55-.29,4.39-5.58,8.97-11.01,13.47-16.5,.38-.46,.73-.94,1.15-1.49Z"/>
      <path class="cls-1" d="M66.39,238.17c-4.23,.03-7.59-3.33-7.52-7.53,.07-3.98,3.42-7.29,7.42-7.32,4.13-.03,7.59,3.48,7.51,7.61-.07,4.04-3.32,7.21-7.42,7.24Z"/>
    </g>
  </g>
</svg>