<svg width="30" height="30" viewBox="0 0 30 30" fill="none" xmlns="http://www.w3.org/2000/svg">
<circle cx="15" cy="15" r="14" stroke="#1F2022" stroke-width="2"/>
<g clip-path="url(#clip0_92_27)">
<path d="M20.5147 9.00049H9.48534C8.11281 9.00049 7 9.87805 7 10.9604V10.9661L13.8474 15.8909C14.1757 16.1268 14.5847 16.2426 14.9997 16.2431C15.4153 16.2426 15.8237 16.1268 16.152 15.8909L23 10.9661V10.9604C23 9.87805 21.8872 9.00049 20.5147 9.00049Z" fill="#1F2022"/>
<path d="M14.9997 17.7127C14.1393 17.7132 13.2722 17.4663 12.5914 16.9768L7 12.9554V19.6573C7 20.7397 8.11281 21.6173 9.48534 21.6173H20.5147C21.8872 21.6173 23 20.7397 23 19.6573V12.9554L17.408 16.9768C16.7278 17.4663 15.8607 17.7132 14.9997 17.7127Z" fill="#1F2022"/>
</g>
<defs>
<clipPath id="clip0_92_27">
<rect width="16" height="12.6176" fill="white" transform="translate(7 9)"/>
</clipPath>
</defs>
</svg>
