<svg width="30" height="30" viewBox="0 0 30 30" fill="none" xmlns="http://www.w3.org/2000/svg">
<circle cx="15.0001" cy="15" r="14" stroke="#1F2022" stroke-width="2"/>
<mask id="mask0_92_37" style="mask-type:alpha" maskUnits="userSpaceOnUse" x="0" y="0" width="30" height="30">
<circle cx="15.0001" cy="15" r="15" fill="#25201B"/>
</mask>
<g mask="url(#mask0_92_37)">
<path d="M11.3757 24.057C11.3813 25.1515 11.3935 26.1834 11.3935 26.4957L11.3609 28H17.8905V26.4957C17.8905 26.0643 17.9057 24.6537 17.9057 22.9011C17.9057 21.6791 17.4869 20.882 17.0169 20.4755C19.9347 20.1512 23.0001 19.0435 23.0001 14.0125C23.0001 12.5825 22.4917 11.414 21.6515 10.4967C21.7875 10.1668 22.2363 8.83455 21.523 7.03033C21.523 7.03033 20.4242 6.67829 17.9232 8.37298C16.8761 8.08276 15.7542 7.93721 14.6407 7.93222C13.5271 7.93721 12.4061 8.08276 11.3609 8.37298C8.85688 6.67829 7.75654 7.03033 7.75654 7.03033C7.04504 8.83455 7.49355 10.1668 7.6296 10.4967C6.79139 11.414 6.27951 12.5825 6.27951 14.0125C6.27951 19.0315 9.33902 20.1547 12.2495 20.4859C11.8747 20.813 11.5351 21.3908 11.4175 22.2374C10.6698 22.5721 8.77312 23.151 7.60443 21.1485C7.60443 21.1485 6.9116 19.8911 5.59579 19.7987C5.59579 19.7987 4.31731 19.782 5.50617 20.595C5.50617 20.595 6.36501 20.9976 6.96107 22.5116C6.96107 22.5116 7.73029 24.8494 11.3757 24.057Z" fill="#1F2022"/>
</g>
</svg>
