<svg width="30" height="30" viewBox="0 0 30 30" fill="none" xmlns="http://www.w3.org/2000/svg">
<circle cx="15" cy="15" r="14" stroke="#1F2022" stroke-width="2"/>
<g clip-path="url(#clip0_92_33)">
<path d="M7 9.74242C7 9.23736 7.18019 8.8207 7.54054 8.49242C7.9009 8.16414 8.36937 8 8.94595 8C9.51223 8 9.97039 8.16161 10.3205 8.48485C10.6808 8.81818 10.861 9.25251 10.861 9.78788C10.861 10.2727 10.686 10.6768 10.3359 11C9.97555 11.3333 9.50193 11.5 8.91506 11.5H8.89961C8.33333 11.5 7.87517 11.3333 7.5251 11C7.17503 10.6667 7 10.2475 7 9.74242ZM7.20077 23V12.8788H10.6293V23H7.20077ZM12.529 23H15.9575V17.3485C15.9575 16.9949 15.9987 16.7222 16.0811 16.5303C16.2252 16.1868 16.444 15.8964 16.7375 15.6591C17.0309 15.4217 17.399 15.303 17.8417 15.303C18.9949 15.303 19.5714 16.0656 19.5714 17.5909V23H23V17.197C23 15.702 22.6396 14.5682 21.9189 13.7954C21.1982 13.0227 20.2458 12.6364 19.0618 12.6364C17.7336 12.6364 16.6988 13.197 15.9575 14.3182V14.3485H15.9421L15.9575 14.3182V12.8788H12.529C12.5495 13.202 12.5598 14.2071 12.5598 15.8939C12.5598 17.5808 12.5495 19.9495 12.529 23Z" fill="#1F2022"/>
</g>
<defs>
<clipPath id="clip0_92_33">
<rect width="16" height="15" fill="white" transform="translate(7 8)"/>
</clipPath>
</defs>
</svg>
