<svg width="28" height="28" viewBox="0 0 28 28" fill="none" xmlns="http://www.w3.org/2000/svg">
<mask id="mask0_48_728" style="mask-type:luminance" maskUnits="userSpaceOnUse" x="0" y="0" width="28" height="28">
<path d="M28 0H0V28H28V0Z" fill="white"/>
</mask>
<g mask="url(#mask0_48_728)">
<path d="M14 0C14.6444 0 15.1667 0.522334 15.1667 1.16667V4.66667C15.1667 5.31099 14.6444 5.83333 14 5.83333C13.3557 5.83333 12.8334 5.31099 12.8334 4.66667V1.16667C12.8334 0.522334 13.3557 0 14 0Z" fill="white"/>
<path fill-rule="evenodd" clip-rule="evenodd" d="M8.16663 14C8.16663 10.7784 10.7783 8.16669 14 8.16669C17.2216 8.16669 19.8333 10.7784 19.8333 14C19.8333 17.2217 17.2216 19.8334 14 19.8334C10.7783 19.8334 8.16663 17.2217 8.16663 14ZM14 10.5C12.0669 10.5 10.5 12.067 10.5 14C10.5 15.9331 12.0669 17.5 14 17.5C15.933 17.5 17.5 15.9331 17.5 14C17.5 12.067 15.933 10.5 14 10.5Z" fill="white"/>
<path d="M23.8994 5.75042C24.355 5.2948 24.355 4.55611 23.8994 4.10049C23.4438 3.64489 22.7051 3.64489 22.2495 4.10049L19.7745 6.57538C19.319 7.03099 19.319 7.76968 19.7745 8.22529C20.2302 8.6809 20.9689 8.6809 21.4246 8.22529L23.8994 5.75042Z" fill="white"/>
<path d="M28 14C28 14.6444 27.4776 15.1667 26.8333 15.1667H23.3333C22.6889 15.1667 22.1666 14.6444 22.1666 14C22.1666 13.3557 22.6889 12.8333 23.3333 12.8333H26.8333C27.4776 12.8333 28 13.3557 28 14Z" fill="white"/>
<path d="M22.2496 23.8995C22.7052 24.3551 23.444 24.3551 23.8995 23.8995C24.3551 23.444 24.3551 22.7052 23.8995 22.2496L21.4247 19.7748C20.969 19.3191 20.2304 19.3191 19.7747 19.7748C19.3191 20.2304 19.3191 20.9691 19.7747 21.4247L22.2496 23.8995Z" fill="white"/>
<path d="M14 28C13.3557 28 12.8334 27.4777 12.8334 26.8333V23.3333C12.8334 22.689 13.3557 22.1667 14 22.1667C14.6444 22.1667 15.1667 22.689 15.1667 23.3333V26.8333C15.1667 27.4777 14.6444 28 14 28Z" fill="white"/>
<path d="M4.10062 22.2496C3.64501 22.7052 3.64501 23.444 4.10062 23.8995C4.55623 24.3551 5.29493 24.3551 5.75054 23.8995L8.22541 21.4247C8.68102 20.969 8.68102 20.2304 8.22541 19.7747C7.7698 19.3191 7.0311 19.3191 6.5755 19.7747L4.10062 22.2496Z" fill="white"/>
<path d="M0 14C0 13.3557 0.522334 12.8333 1.16667 12.8333H4.66667C5.31099 12.8333 5.83333 13.3557 5.83333 14C5.83333 14.6444 5.31099 15.1667 4.66667 15.1667H1.16667C0.522334 15.1667 0 14.6444 0 14Z" fill="white"/>
<path d="M5.75042 4.1005C5.2948 3.64488 4.55611 3.64488 4.10049 4.1005C3.64489 4.55611 3.64489 5.2948 4.10049 5.75041L6.57538 8.22529C7.03099 8.68089 7.76968 8.68089 8.22529 8.22529C8.6809 7.76967 8.6809 7.03098 8.22529 6.57536L5.75042 4.1005Z" fill="white"/>
</g>
</svg>
