<svg width="109" height="26" viewBox="0 0 109 26" fill="none" xmlns="http://www.w3.org/2000/svg">
<path d="M17.9675 8.75943C17.9675 8.31802 18.12 7.93966 18.425 7.62437C18.746 7.30907 19.1473 7.15143 19.6288 7.15143C20.1104 7.15143 20.5036 7.30907 20.8086 7.62437C21.1136 7.93966 21.2661 8.31802 21.2661 8.75943C21.2661 9.18508 21.1136 9.54767 20.8086 9.8472C20.5036 10.1625 20.1104 10.3201 19.6288 10.3201C19.1473 10.3201 18.746 10.1625 18.425 9.8472C18.12 9.54767 17.9675 9.18508 17.9675 8.75943ZM4.82148 7.31696L9.68504 8.49931L8.28857 8.80672C8.28857 8.34955 8.43303 7.96331 8.72196 7.64802C9.01088 7.34849 9.40414 7.19872 9.90173 7.19872C10.3833 7.19872 10.7765 7.34849 11.0815 7.64802C11.3865 7.96331 11.539 8.34167 11.539 8.78308C11.539 9.24025 11.3784 9.61073 11.0574 9.89449C10.7524 10.1783 10.3672 10.3201 9.90173 10.3201C9.74121 10.3201 9.5807 10.3044 9.42019 10.2728C9.27573 10.2571 9.09916 10.2177 8.8905 10.1546C8.69788 10.1073 8.45711 10.0285 8.16818 9.91814L4.82148 8.80672L4.82148 7.31696Z" fill="#1F2022"/>
<path d="M3.71394 14.3298L3.71394 12.1779C5.41538 13.1396 7.18905 13.8411 9.03496 14.2825C10.8969 14.7239 12.8792 14.9446 14.982 14.9446C17.0847 14.9446 19.059 14.7239 20.9049 14.2825C22.7669 13.8411 24.5486 13.1396 26.25 12.1779L26.25 14.3298C24.8214 15.2599 23.136 15.9615 21.1938 16.4344C19.2677 16.9231 17.1971 17.1675 14.982 17.1675C12.7669 17.1675 10.6963 16.9231 8.77011 16.4344C6.86 15.9615 5.17461 15.2599 3.71394 14.3298Z" fill="#1F2022"/>
<path d="M0 -1.31134e-06L30 0L30 6.69872L27.4679 6.69872L27.4679 3.07692L2.53205 3.07692L2.53205 6.69872L-2.9281e-07 6.69872L0 -1.31134e-06Z" fill="#1F2022"/>
<path d="M-6.16443e-08 18.5777L0 17.1675L2.53205 17.1675L2.53205 17.9367C2.53205 18.77 2.74573 19.379 3.17307 19.7636C3.60043 20.1696 4.22009 20.3726 5.03205 20.3726L12.0513 20.3726C12.7991 20.3726 13.3761 20.4581 13.7821 20.629C14.2094 20.8213 14.5299 21.1098 14.7436 21.4944C14.9573 21.879 15.1068 22.3598 15.1923 22.9367L14.8077 22.9367C14.9145 22.3598 15.0641 21.879 15.2564 21.4944C15.4701 21.1098 15.7799 20.8213 16.1859 20.629C16.6132 20.4581 17.2009 20.3726 17.9487 20.3726L24.9679 20.3726C25.7799 20.3726 26.3996 20.1696 26.8269 19.7636C27.2543 19.379 27.4679 18.77 27.4679 17.9367L27.4679 17.1675L30 17.1675L30 18.5777C30 20.1803 29.6047 21.3876 28.8141 22.1995C28.0235 23.0329 26.8376 23.4495 25.2564 23.4495L17.8846 23.4495C17.3291 23.4495 16.9231 23.5777 16.6667 23.8341C16.4103 24.0906 16.2821 24.4324 16.2821 24.8598L16.2821 25.9495L13.7179 25.9495L13.7179 24.8598C13.7179 24.4324 13.5897 24.0906 13.3333 23.8341C13.0769 23.5777 12.6709 23.4495 12.1154 23.4495L4.74359 23.4495C3.18376 23.4495 2.00855 23.0329 1.21795 22.1995C0.405981 21.3876 -1.31695e-07 20.1803 -6.16443e-08 18.5777Z" fill="#1F2022"/>
<path d="M41.78 20.16C40.5533 20.16 39.4733 19.92 38.54 19.44C37.62 18.96 36.9067 18.3067 36.4 17.48C35.8933 16.64 35.64 15.6867 35.64 14.62C35.64 13.54 35.8867 12.5867 36.38 11.76C36.8867 10.92 37.5733 10.2667 38.44 9.8C39.3067 9.32 40.2867 9.08 41.38 9.08C42.4333 9.08 43.38 9.30667 44.22 9.76C45.0733 10.2 45.7467 10.84 46.24 11.68C46.7333 12.5067 46.98 13.5 46.98 14.66C46.98 14.78 46.9733 14.92 46.96 15.08C46.9467 15.2267 46.9333 15.3667 46.92 15.5H38.18V13.68H45.28L44.08 14.22C44.08 13.66 43.9667 13.1733 43.74 12.76C43.5133 12.3467 43.2 12.0267 42.8 11.8C42.4 11.56 41.9333 11.44 41.4 11.44C40.8667 11.44 40.3933 11.56 39.98 11.8C39.58 12.0267 39.2667 12.3533 39.04 12.78C38.8133 13.1933 38.7 13.6867 38.7 14.26V14.74C38.7 15.3267 38.8267 15.8467 39.08 16.3C39.3467 16.74 39.7133 17.08 40.18 17.32C40.66 17.5467 41.22 17.66 41.86 17.66C42.4333 17.66 42.9333 17.5733 43.36 17.4C43.8 17.2267 44.2 16.9667 44.56 16.62L46.22 18.42C45.7267 18.98 45.1067 19.4133 44.36 19.72C43.6133 20.0133 42.7533 20.16 41.78 20.16ZM50.2372 20.16C49.7039 20.16 49.2439 19.98 48.8572 19.62C48.4839 19.2467 48.2972 18.7733 48.2972 18.2C48.2972 17.6267 48.4839 17.1667 48.8572 16.82C49.2439 16.46 49.7039 16.28 50.2372 16.28C50.7839 16.28 51.2439 16.46 51.6172 16.82C51.9905 17.1667 52.1772 17.6267 52.1772 18.2C52.1772 18.7733 51.9905 19.2467 51.6172 19.62C51.2439 19.98 50.7839 20.16 50.2372 20.16ZM56.567 20L52.047 9.24H55.267L59.027 18.5H57.427L61.327 9.24H64.327L59.787 20H56.567ZM65.6002 20V9.24H68.7202V20H65.6002ZM67.1602 7.74C66.5868 7.74 66.1202 7.57333 65.7602 7.24C65.4002 6.90667 65.2202 6.49333 65.2202 6C65.2202 5.50667 65.4002 5.09333 65.7602 4.76C66.1202 4.42667 66.5868 4.26 67.1602 4.26C67.7335 4.26 68.2002 4.42 68.5602 4.74C68.9202 5.04667 69.1002 5.44667 69.1002 5.94C69.1002 6.46 68.9202 6.89333 68.5602 7.24C68.2135 7.57333 67.7468 7.74 67.1602 7.74ZM76.9558 20.16C75.7291 20.16 74.6491 19.92 73.7158 19.44C72.7958 18.96 72.0824 18.3067 71.5758 17.48C71.0691 16.64 70.8158 15.6867 70.8158 14.62C70.8158 13.54 71.0624 12.5867 71.5558 11.76C72.0624 10.92 72.7491 10.2667 73.6158 9.8C74.4824 9.32 75.4624 9.08 76.5558 9.08C77.6091 9.08 78.5558 9.30667 79.3958 9.76C80.2491 10.2 80.9224 10.84 81.4158 11.68C81.9091 12.5067 82.1558 13.5 82.1558 14.66C82.1558 14.78 82.1491 14.92 82.1358 15.08C82.1224 15.2267 82.1091 15.3667 82.0958 15.5H73.3558V13.68H80.4558L79.2558 14.22C79.2558 13.66 79.1424 13.1733 78.9158 12.76C78.6891 12.3467 78.3758 12.0267 77.9758 11.8C77.5758 11.56 77.1091 11.44 76.5758 11.44C76.0424 11.44 75.5691 11.56 75.1558 11.8C74.7558 12.0267 74.4424 12.3533 74.2158 12.78C73.9891 13.1933 73.8758 13.6867 73.8758 14.26V14.74C73.8758 15.3267 74.0024 15.8467 74.2558 16.3C74.5224 16.74 74.8891 17.08 75.3558 17.32C75.8358 17.5467 76.3958 17.66 77.0358 17.66C77.6091 17.66 78.1091 17.5733 78.5358 17.4C78.9758 17.2267 79.3758 16.9667 79.7358 16.62L81.3958 18.42C80.9024 18.98 80.2824 19.4133 79.5358 19.72C78.7891 20.0133 77.9291 20.16 76.9558 20.16ZM84.233 20V9.24H87.353V20H84.233ZM85.793 7.74C85.2196 7.74 84.753 7.57333 84.393 7.24C84.033 6.90667 83.853 6.49333 83.853 6C83.853 5.50667 84.033 5.09333 84.393 4.76C84.753 4.42667 85.2196 4.26 85.793 4.26C86.3663 4.26 86.833 4.42 87.193 4.74C87.553 5.04667 87.733 5.44667 87.733 5.94C87.733 6.46 87.553 6.89333 87.193 7.24C86.8463 7.57333 86.3796 7.74 85.793 7.74ZM90.2486 20V9.24H93.2286V12.28L92.8086 11.4C93.1286 10.64 93.6419 10.0667 94.3486 9.68C95.0553 9.28 95.9153 9.08 96.9286 9.08V11.96C96.7953 11.9467 96.6753 11.94 96.5686 11.94C96.4619 11.9267 96.3486 11.92 96.2286 11.92C95.3753 11.92 94.6819 12.1667 94.1486 12.66C93.6286 13.14 93.3686 13.8933 93.3686 14.92V20H90.2486ZM104.681 20V17.9L104.481 17.44V13.68C104.481 13.0133 104.274 12.4933 103.861 12.12C103.461 11.7467 102.841 11.56 102.001 11.56C101.427 11.56 100.861 11.6533 100.301 11.84C99.754 12.0133 99.2873 12.2533 98.9006 12.56L97.7806 10.38C98.3673 9.96667 99.074 9.64667 99.9006 9.42C100.727 9.19333 101.567 9.08 102.421 9.08C104.061 9.08 105.334 9.46667 106.241 10.24C107.147 11.0133 107.601 12.22 107.601 13.86V20H104.681ZM101.401 20.16C100.561 20.16 99.8406 20.02 99.2406 19.74C98.6406 19.4467 98.1806 19.0533 97.8606 18.56C97.5406 18.0667 97.3806 17.5133 97.3806 16.9C97.3806 16.26 97.534 15.7 97.8406 15.22C98.1606 14.74 98.6606 14.3667 99.3406 14.1C100.021 13.82 100.907 13.68 102.001 13.68H104.861V15.5H102.341C101.607 15.5 101.101 15.62 100.821 15.86C100.554 16.1 100.421 16.4 100.421 16.76C100.421 17.16 100.574 17.48 100.881 17.72C101.201 17.9467 101.634 18.06 102.181 18.06C102.701 18.06 103.167 17.94 103.581 17.7C103.994 17.4467 104.294 17.08 104.481 16.6L104.961 18.04C104.734 18.7333 104.321 19.26 103.721 19.62C103.121 19.98 102.347 20.16 101.401 20.16Z" fill="#1F2022"/>
</svg>
