<?xml version="1.0" encoding="UTF-8"?>
<svg id="Layer_2" data-name="Layer 2" xmlns="http://www.w3.org/2000/svg" viewBox="0 0 344.79 383.11">
  <defs>
    <style>
      .cls-1 {
        fill: #020202;
      }
    </style>
  </defs>
  <g id="Layer_1-2" data-name="Layer 1">
    <g>
      <path class="cls-1" d="M264.49,0c4.03,2.2,5.34,5.56,5.3,10.14-.17,22.94-.03,45.89-.13,68.83-.01,2.77,.31,3.89,3.59,4.32,40.42,5.32,70.62,39.39,71.52,80.36,.88,40.21-27.84,75.36-67.53,82.67-7.52,1.38-8.32,1.71-8.62,9.27-.12,2.94-.24,6.81,1.8,8.49,1.72,1.42,5.5,.38,8.36,.38,8.15,.02,10.41,2.28,10.41,10.45,0,27.06,.08,54.12-.04,81.18-.07,15.52-12.53,27.43-27.88,27-13.93-.39-25.57-11.99-25.95-25.91-.1-3.74-.16-7.49,.01-11.22,.1-2.2-.68-2.89-2.74-2.61-.86,.11-148.52,.02-221.47,.01-6.62,0-10.65-3.32-10.96-7.21-.1-1.24-.07-129.19-.07-191.91,0-1.37-.04-2.75,.1-4.11,.4-3.87,3.43-6.7,7.18-6.79,3.54-.09,6.71,2.45,7.39,6.13,.29,1.58,.28,3.22,.28,4.84,.01,59.98,.04,119.96-.07,179.94,0,3.47,.94,4.23,4.3,4.22,70.58-.1,141.16-.11,211.75,.02,3.76,0,4.39-1.07,4.35-4.53-.19-16.71-.09-33.42-.08-50.13,0-6.72,2.54-9.3,9.2-9.37,2.62-.03,5.25-.14,7.85,.04,2.04,.13,2.51-.65,2.45-2.55-.13-3.99-.17-7.99,.01-11.97,.1-2.14-.77-2.67-2.71-2.97-33.38-5.18-56.3-23.78-67.8-55.28-17.17-47.01,14.61-100.15,63.88-108q6.58-1.05,6.58-7.68c0-19.2-.05-38.41,.06-57.61,.01-2.6-.35-3.56-3.34-3.56-77.69,.1-155.38,.1-233.07,0-2.89,0-3.43,.78-3.41,3.5,.13,17.96,.08,35.91,.05,53.87,0,1.61-.06,3.27-.44,4.82-.85,3.46-3.91,5.53-7.55,5.35-3.54-.18-6.34-2.69-6.81-6.25-.18-1.35-.15-2.74-.16-4.11C.08,51.62,.19,31.17,0,10.72-.04,6.17,.96,2.56,4.83,0H264.49Zm-69.91,165.01c-.13,37.18,30.11,67.62,67.29,67.75,37.49,.13,67.83-29.98,67.95-67.43,.12-37.23-30.03-67.72-67.16-67.91-36.98-.19-67.95,30.55-68.08,67.6Zm55.67,154.48c0,12.21-.06,24.41,.02,36.62,.05,6.72,5.26,11.93,11.75,12.03,6.64,.1,12.13-5.13,12.15-12.02,.08-24.66,.01-49.33,.08-73.99,0-2.09-.52-2.79-2.68-2.74-6.1,.14-12.21,.17-18.31,0-2.48-.07-3.11,.67-3.08,3.12,.13,12.33,.06,24.66,.06,36.99Z"/>
      <path class="cls-1" d="M147.21,278.23h24.69c-1.53-1.57-2.8-2.83-4.03-4.14-3.08-3.28-3.22-7.76-.35-10.72,2.83-2.92,7.18-3.17,10.41-.23,6.17,5.63,12.26,11.35,18.22,17.2,3.51,3.45,3.42,7.78-.17,11.23-5.84,5.62-11.79,11.12-17.81,16.55-3.42,3.08-7.85,2.91-10.73-.13-2.83-3-2.63-7.49,.52-10.71,1.13-1.15,2.33-2.23,3.66-3.49-1.35-.86-2.73-.44-4-.44-36.16-.03-72.33-.02-108.49-.03-4.67,0-7.57-1.72-8.64-5.06-1.67-5.2,1.95-9.86,7.88-9.88,15.34-.07,30.68,.01,46.02-.05,4.72-.02,9.45,.31,14.17-.6,15.69-3.03,27.01-17.48,26.08-33.49-.92-15.98-14.32-29.41-30.22-30.3-18.9-1.06-33.27,11.2-35.16,30-.07,.74-.11,1.49-.18,2.24-.45,4.44-3.4,7.39-7.4,7.39-4.08,0-7.43-3.28-7.48-7.75-.06-4.88,.76-9.67,2.28-14.33,7.2-22.03,30.12-36.11,52.4-32.2,24.44,4.29,41.43,24.42,40.78,48.33-.29,10.5-3.88,19.44-12.46,30.59Z"/>
      <path class="cls-1" d="M58.96,71.8c-4.56,0-7.49-1.87-8.48-5.27-1.38-4.69,1.7-9.22,6.59-9.65,1.11-.1,148.95-.05,149.57-.04,4.83,.1,8.18,3.03,8.32,7.26,.14,4.33-3.34,7.68-8.29,7.69-24.8,.04-123.27,.03-147.7,.01Z"/>
      <path class="cls-1" d="M58.31,117.8c-5-.25-8.12-3.07-8.17-7.39-.06-4.47,3.18-7.53,8.36-7.55,17.58-.06,106.98,.03,108.41,.38,3.22,.77,5.5,3.91,5.45,7.18-.05,3.45-2.55,6.51-5.99,7.12l-108.06,.26Z"/>
      <path class="cls-1" d="M143.71,148.88c5.62,0,9.19,3.02,9.08,7.6-.1,4.44-3.61,7.36-9,7.36-28.27,.02-56.54,.02-84.82,0-5.45,0-8.79-2.88-8.82-7.46-.02-4.6,3.29-7.49,8.73-7.5,14.2-.02,70.74-.02,84.82,0Z"/>
      <path class="cls-1" d="M7.67,115.36c-4.27,.07-7.43-2.9-7.52-7.07-.09-4.3,3.21-7.72,7.41-7.68,4.07,.03,7.35,3.3,7.41,7.38,.06,4.09-3.12,7.3-7.3,7.36Z"/>
      <path class="cls-1" d="M262.31,216.56c-28.26,.07-51.48-22.95-51.6-51.16-.13-28.43,22.97-51.67,51.41-51.69,28.49-.03,51.67,23.1,51.62,51.5-.05,28.23-23.14,51.29-51.43,51.36Zm-.12-15c20.03,.02,36.38-16.19,36.56-36.23,.18-20.03-16.37-36.64-36.52-36.64-20.18,0-36.65,16.5-36.55,36.6,.1,19.99,16.48,36.26,36.51,36.28Z"/>
    </g>
  </g>
</svg>